<mxfile host="Electron" agent="Mozilla/5.0 (Macintosh; Intel Mac OS X 10_15_7) AppleWebKit/537.36 (KHTML, like Gecko) draw.io/26.0.9 Chrome/128.0.6613.186 Electron/32.2.5 Safari/537.36" version="26.0.9">
  <diagram name="Page-1" id="iSE-BYIHh8CY65DjldPa">
    <mxGraphModel dx="1252" dy="1084" grid="0" gridSize="10" guides="1" tooltips="1" connect="1" arrows="1" fold="1" page="0" pageScale="1" pageWidth="850" pageHeight="1100" math="0" shadow="0">
      <root>
        <mxCell id="0" />
        <mxCell id="1" parent="0" />
        <mxCell id="VPsLKvTVY1jadgCigQuc-1" value="" style="rounded=0;whiteSpace=wrap;html=1;dashed=1;strokeWidth=2;fillColor=#f9f7ed;strokeColor=#36393d;verticalAlign=bottom;fontSize=16;fontStyle=1;sketch=1;curveFitting=1;jiggle=2;" parent="1" vertex="1">
          <mxGeometry x="-209" y="124" width="541" height="428" as="geometry" />
        </mxCell>
        <mxCell id="VPsLKvTVY1jadgCigQuc-2" value="Podcast Feeds" style="ellipse;shape=cloud;whiteSpace=wrap;html=1;sketch=1;curveFitting=1;jiggle=2;rounded=0;" parent="1" vertex="1">
          <mxGeometry x="-272.8" y="-92" width="317" height="133" as="geometry" />
        </mxCell>
        <mxCell id="VPsLKvTVY1jadgCigQuc-4" style="edgeStyle=none;curved=1;rounded=0;orthogonalLoop=1;jettySize=auto;html=1;entryX=0.494;entryY=0.932;entryDx=0;entryDy=0;entryPerimeter=0;fontSize=12;startSize=8;endSize=8;sketch=1;curveFitting=1;jiggle=2;" parent="1" source="VPsLKvTVY1jadgCigQuc-17" target="VPsLKvTVY1jadgCigQuc-2" edge="1">
          <mxGeometry relative="1" as="geometry">
            <mxPoint x="-117.60057462752889" y="137" as="sourcePoint" />
          </mxGeometry>
        </mxCell>
        <mxCell id="VPsLKvTVY1jadgCigQuc-16" value="" style="group;sketch=1;curveFitting=1;jiggle=2;rounded=0;" parent="1" vertex="1" connectable="0">
          <mxGeometry x="212" y="-87" width="178" height="128" as="geometry" />
        </mxCell>
        <mxCell id="VPsLKvTVY1jadgCigQuc-14" value="" style="rounded=0;whiteSpace=wrap;html=1;dashed=1;strokeWidth=2;sketch=1;curveFitting=1;jiggle=2;" parent="VPsLKvTVY1jadgCigQuc-16" vertex="1">
          <mxGeometry width="178" height="128" as="geometry" />
        </mxCell>
        <mxCell id="VPsLKvTVY1jadgCigQuc-15" value="" style="shape=image;verticalLabelPosition=bottom;labelBackgroundColor=default;verticalAlign=top;aspect=fixed;imageAspect=0;image=https://miro.medium.com/v2/resize:fit:690/1*PCGbnvnYY9SYIjyXvwOHkw.png;sketch=1;curveFitting=1;jiggle=2;rounded=0;" parent="VPsLKvTVY1jadgCigQuc-16" vertex="1">
          <mxGeometry x="25" y="30.159999999999997" width="121" height="67.69" as="geometry" />
        </mxCell>
        <mxCell id="VPsLKvTVY1jadgCigQuc-19" style="rounded=0;orthogonalLoop=1;jettySize=auto;html=1;fontSize=12;startSize=8;endSize=8;exitX=1;exitY=0.5;exitDx=0;exitDy=0;sketch=1;curveFitting=1;jiggle=2;" parent="1" source="VPsLKvTVY1jadgCigQuc-17" target="VPsLKvTVY1jadgCigQuc-15" edge="1">
          <mxGeometry relative="1" as="geometry" />
        </mxCell>
        <mxCell id="VPsLKvTVY1jadgCigQuc-17" value="&lt;span style=&quot;font-size: 14px;&quot;&gt;&lt;b&gt;Transcriber&lt;br&gt;&lt;/b&gt;&lt;/span&gt;(transcribe audio files)" style="shape=process;whiteSpace=wrap;html=1;backgroundOutline=1;sketch=1;curveFitting=1;jiggle=2;rounded=0;fillColor=#1ba1e2;fontColor=#000033;strokeColor=#006EAF;" parent="1" vertex="1">
          <mxGeometry x="-174.3" y="136" width="120" height="60" as="geometry" />
        </mxCell>
        <mxCell id="VPsLKvTVY1jadgCigQuc-36" value="" style="group;rounded=0;glass=0;shadow=1;sketch=1;curveFitting=1;jiggle=2;" parent="1" vertex="1" connectable="0">
          <mxGeometry x="421" y="55" width="178" height="183" as="geometry" />
        </mxCell>
        <mxCell id="VPsLKvTVY1jadgCigQuc-5" value="" style="rounded=0;whiteSpace=wrap;html=1;dashed=1;strokeWidth=2;sketch=1;curveFitting=1;jiggle=2;" parent="VPsLKvTVY1jadgCigQuc-36" vertex="1">
          <mxGeometry y="38" width="178" height="145" as="geometry" />
        </mxCell>
        <mxCell id="VPsLKvTVY1jadgCigQuc-7" value="Amazon S3" style="sketch=1;outlineConnect=0;fontColor=#232F3E;gradientColor=none;strokeColor=#ffffff;fillColor=#3399FF;dashed=0;verticalLabelPosition=middle;verticalAlign=bottom;align=center;html=1;whiteSpace=wrap;fontSize=10;fontStyle=1;spacing=3;shape=mxgraph.aws4.productIcon;prIcon=mxgraph.aws4.s3;curveFitting=1;jiggle=2;rounded=0;" parent="VPsLKvTVY1jadgCigQuc-36" vertex="1">
          <mxGeometry x="54" y="60" width="80" height="100" as="geometry" />
        </mxCell>
        <mxCell id="VPsLKvTVY1jadgCigQuc-38" value="&lt;span style=&quot;color: rgb(0, 0, 0); font-family: Helvetica; font-size: 12px; font-style: normal; font-variant-ligatures: normal; font-variant-caps: normal; font-weight: 400; letter-spacing: normal; orphans: 2; text-align: center; text-indent: 0px; text-transform: none; widows: 2; word-spacing: 0px; -webkit-text-stroke-width: 0px; white-space: nowrap; background-color: rgb(255, 255, 255); text-decoration-thickness: initial; text-decoration-style: initial; text-decoration-color: initial; float: none; display: inline !important;&quot;&gt;Writes transcription&amp;nbsp;&lt;/span&gt;&lt;span style=&quot;color: light-dark(rgb(0, 0, 0), rgb(0, 0, 0)); text-align: center; text-wrap: nowrap; background-color: transparent;&quot;&gt;to S3&lt;/span&gt;" style="text;whiteSpace=wrap;html=1;sketch=1;curveFitting=1;jiggle=2;rounded=0;" parent="1" vertex="1">
          <mxGeometry x="83" y="132" width="201.4" height="23" as="geometry" />
        </mxCell>
        <mxCell id="VPsLKvTVY1jadgCigQuc-37" style="edgeStyle=orthogonalEdgeStyle;rounded=0;orthogonalLoop=1;jettySize=auto;html=1;fontSize=12;startSize=8;endSize=8;sketch=1;curveFitting=1;jiggle=2;" parent="1" source="VPsLKvTVY1jadgCigQuc-17" target="VPsLKvTVY1jadgCigQuc-7" edge="1">
          <mxGeometry relative="1" as="geometry">
            <mxPoint x="-46.99999999999996" y="166.25" as="sourcePoint" />
            <mxPoint x="482.3" y="165.25" as="targetPoint" />
          </mxGeometry>
        </mxCell>
        <mxCell id="VPsLKvTVY1jadgCigQuc-11" value="" style="html=1;verticalLabelPosition=bottom;align=center;labelBackgroundColor=#ffffff;verticalAlign=top;strokeWidth=2;strokeColor=#0080F0;shadow=0;dashed=0;shape=mxgraph.ios7.icons.gauge;sketch=1;curveFitting=1;jiggle=2;rounded=0;" parent="1" vertex="1">
          <mxGeometry x="-206.70000000000002" y="150.25" width="32.4" height="31.5" as="geometry" />
        </mxCell>
        <mxCell id="ITkjMg-f8AzUp9j5lRt0-5" style="edgeStyle=none;curved=1;rounded=0;orthogonalLoop=1;jettySize=auto;html=1;fontSize=12;startSize=8;endSize=8;sketch=1;curveFitting=1;jiggle=2;" edge="1" parent="1" source="ITkjMg-f8AzUp9j5lRt0-3" target="VPsLKvTVY1jadgCigQuc-7">
          <mxGeometry relative="1" as="geometry" />
        </mxCell>
        <mxCell id="ITkjMg-f8AzUp9j5lRt0-6" value="download transcribed files" style="edgeLabel;html=1;align=center;verticalAlign=middle;resizable=0;points=[];fontSize=12;" vertex="1" connectable="0" parent="ITkjMg-f8AzUp9j5lRt0-5">
          <mxGeometry x="-0.206" y="-1" relative="1" as="geometry">
            <mxPoint x="-1" as="offset" />
          </mxGeometry>
        </mxCell>
        <mxCell id="ITkjMg-f8AzUp9j5lRt0-10" style="edgeStyle=none;curved=1;rounded=0;orthogonalLoop=1;jettySize=auto;html=1;fontSize=12;startSize=8;endSize=8;" edge="1" parent="1" source="ITkjMg-f8AzUp9j5lRt0-3" target="ITkjMg-f8AzUp9j5lRt0-9">
          <mxGeometry relative="1" as="geometry" />
        </mxCell>
        <mxCell id="ITkjMg-f8AzUp9j5lRt0-3" value="&lt;span style=&quot;font-size: 14px;&quot;&gt;&lt;b&gt;RAG Driver (app.py)&lt;/b&gt;&lt;/span&gt;" style="shape=process;whiteSpace=wrap;html=1;backgroundOutline=1;sketch=1;curveFitting=1;jiggle=2;rounded=0;fillColor=#1ba1e2;fontColor=#000033;strokeColor=#006EAF;" vertex="1" parent="1">
          <mxGeometry x="1.5" y="191" width="120" height="60" as="geometry" />
        </mxCell>
        <mxCell id="ITkjMg-f8AzUp9j5lRt0-7" value="Local file store" style="shape=cube;whiteSpace=wrap;html=1;boundedLbl=1;backgroundOutline=1;darkOpacity=0.05;darkOpacity2=0.1;sketch=1;curveFitting=1;jiggle=2;" vertex="1" parent="1">
          <mxGeometry x="200" y="225" width="120" height="80" as="geometry" />
        </mxCell>
        <mxCell id="ITkjMg-f8AzUp9j5lRt0-8" style="edgeStyle=none;curved=1;rounded=0;orthogonalLoop=1;jettySize=auto;html=1;fontSize=12;startSize=8;endSize=8;sketch=1;curveFitting=1;jiggle=2;" edge="1" parent="1" source="ITkjMg-f8AzUp9j5lRt0-3" target="ITkjMg-f8AzUp9j5lRt0-7">
          <mxGeometry relative="1" as="geometry" />
        </mxCell>
        <mxCell id="ITkjMg-f8AzUp9j5lRt0-12" style="edgeStyle=none;curved=1;rounded=0;orthogonalLoop=1;jettySize=auto;html=1;fontSize=12;startSize=8;endSize=8;sketch=1;curveFitting=1;jiggle=2;" edge="1" parent="1" source="ITkjMg-f8AzUp9j5lRt0-9" target="ITkjMg-f8AzUp9j5lRt0-7">
          <mxGeometry relative="1" as="geometry" />
        </mxCell>
        <mxCell id="ITkjMg-f8AzUp9j5lRt0-13" style="edgeStyle=none;curved=1;rounded=0;orthogonalLoop=1;jettySize=auto;html=1;fontSize=12;startSize=8;endSize=8;sketch=1;curveFitting=1;jiggle=2;" edge="1" parent="1" source="ITkjMg-f8AzUp9j5lRt0-9" target="ITkjMg-f8AzUp9j5lRt0-11">
          <mxGeometry relative="1" as="geometry" />
        </mxCell>
        <mxCell id="ITkjMg-f8AzUp9j5lRt0-18" style="edgeStyle=none;curved=1;rounded=0;orthogonalLoop=1;jettySize=auto;html=1;fontSize=12;startSize=8;endSize=8;sketch=1;curveFitting=1;jiggle=2;" edge="1" parent="1" source="ITkjMg-f8AzUp9j5lRt0-9" target="ITkjMg-f8AzUp9j5lRt0-16">
          <mxGeometry relative="1" as="geometry" />
        </mxCell>
        <mxCell id="ITkjMg-f8AzUp9j5lRt0-9" value="&lt;span style=&quot;font-size: 14px;&quot;&gt;&lt;b&gt;Generate Vector DB&lt;/b&gt;&lt;/span&gt;" style="shape=process;whiteSpace=wrap;html=1;backgroundOutline=1;sketch=1;curveFitting=1;jiggle=2;rounded=0;fillColor=#1ba1e2;fontColor=#000033;strokeColor=#006EAF;" vertex="1" parent="1">
          <mxGeometry x="1.5" y="286" width="120" height="60" as="geometry" />
        </mxCell>
        <mxCell id="ITkjMg-f8AzUp9j5lRt0-11" value="Chroma" style="shape=cylinder3;whiteSpace=wrap;html=1;boundedLbl=1;backgroundOutline=1;size=15;sketch=1;curveFitting=1;jiggle=2;" vertex="1" parent="1">
          <mxGeometry x="212.5" y="344" width="95" height="80" as="geometry" />
        </mxCell>
        <mxCell id="ITkjMg-f8AzUp9j5lRt0-28" style="edgeStyle=none;curved=1;rounded=0;orthogonalLoop=1;jettySize=auto;html=1;fontSize=12;startSize=8;endSize=8;sketch=1;curveFitting=1;jiggle=2;" edge="1" parent="1" source="ITkjMg-f8AzUp9j5lRt0-19" target="ITkjMg-f8AzUp9j5lRt0-11">
          <mxGeometry relative="1" as="geometry" />
        </mxCell>
        <mxCell id="ITkjMg-f8AzUp9j5lRt0-29" style="edgeStyle=none;curved=1;rounded=0;orthogonalLoop=1;jettySize=auto;html=1;fontSize=12;startSize=8;endSize=8;sketch=1;curveFitting=1;jiggle=2;" edge="1" parent="1" source="ITkjMg-f8AzUp9j5lRt0-19" target="ITkjMg-f8AzUp9j5lRt0-22">
          <mxGeometry relative="1" as="geometry" />
        </mxCell>
        <mxCell id="ITkjMg-f8AzUp9j5lRt0-30" style="edgeStyle=none;curved=1;rounded=0;orthogonalLoop=1;jettySize=auto;html=1;fontSize=12;startSize=8;endSize=8;sketch=1;curveFitting=1;jiggle=2;" edge="1" parent="1" source="ITkjMg-f8AzUp9j5lRt0-19" target="ITkjMg-f8AzUp9j5lRt0-20">
          <mxGeometry relative="1" as="geometry">
            <mxPoint x="-234" y="335" as="targetPoint" />
          </mxGeometry>
        </mxCell>
        <mxCell id="ITkjMg-f8AzUp9j5lRt0-19" value="&lt;span style=&quot;font-size: 14px;&quot;&gt;&lt;b&gt;Query Engine&lt;/b&gt;&lt;/span&gt;" style="shape=process;whiteSpace=wrap;html=1;backgroundOutline=1;sketch=1;curveFitting=1;jiggle=2;rounded=0;fillColor=#1ba1e2;fontColor=#000033;strokeColor=#006EAF;" vertex="1" parent="1">
          <mxGeometry x="1.5" y="428" width="120" height="60" as="geometry" />
        </mxCell>
        <mxCell id="ITkjMg-f8AzUp9j5lRt0-22" value="Prompt Template" style="shape=note;whiteSpace=wrap;html=1;backgroundOutline=1;darkOpacity=0.05;sketch=1;curveFitting=1;jiggle=2;" vertex="1" parent="1">
          <mxGeometry x="222" y="463" width="76" height="78" as="geometry" />
        </mxCell>
        <mxCell id="ITkjMg-f8AzUp9j5lRt0-27" style="edgeStyle=none;curved=1;rounded=0;orthogonalLoop=1;jettySize=auto;html=1;entryX=0;entryY=0.5;entryDx=0;entryDy=0;fontSize=12;startSize=8;endSize=8;sketch=1;curveFitting=1;jiggle=2;" edge="1" parent="1" source="ITkjMg-f8AzUp9j5lRt0-23" target="ITkjMg-f8AzUp9j5lRt0-19">
          <mxGeometry relative="1" as="geometry" />
        </mxCell>
        <mxCell id="ITkjMg-f8AzUp9j5lRt0-23" value="" style="verticalLabelPosition=bottom;sketch=0;html=1;fillColor=#A153A0;verticalAlign=top;align=center;pointerEvents=1;shape=mxgraph.cisco_safe.design.actor_1;" vertex="1" parent="1">
          <mxGeometry x="-303.75" y="433" width="23.5" height="50" as="geometry" />
        </mxCell>
        <mxCell id="ITkjMg-f8AzUp9j5lRt0-24" value="" style="group" vertex="1" connectable="0" parent="1">
          <mxGeometry x="-331.6" y="259" width="79.19999999999999" height="72" as="geometry" />
        </mxCell>
        <mxCell id="ITkjMg-f8AzUp9j5lRt0-20" value="" style="shape=image;aspect=fixed;image=data:image/svg+xml,PD94bWwgdmVyc2lvbj0iMS4wIiBlbmNvZGluZz0iVVRGLTgiIHN0YW5kYWxvbmU9Im5vIj8+Cgo8c3ZnIGZpbGw9IiMwMDAwMDAiIHdpZHRoPSI4MDBweCIgaGVpZ2h0PSI4MDBweCIgdmlld0JveD0iMCAwIDI0IDI0IiByb2xlPSJpbWciIHhtbG5zPSJodHRwOi8vd3d3LnczLm9yZy8yMDAwL3N2ZyI+CiAgPHBhdGggc3R5bGU9ImZpbGw6I2ZmZmZmZjtzdHJva2Utd2lkdGg6MC4wMyIgZD0iTSA5LjY2MDE1NjIsMS4xNjAxNTYyIEMgOC45MjA5MDExLDEuMjEyMTA5NiA4LjE3NTk2NDIsMS40MTQ1MzE1IDcuNjk5MjE4OCwyLjAyMzQzNzUgNy4wNTU3MTE0LDIuNjAyNjQyMiA2LjIxNjg5MDksMy4wNDc5ODQ5IDUuOTEwODg3MiwzLjkxNDY5ODUgNS4zNjY0NjMyLDQuODgwMjEyNSA0LjE1NjMxNjUsNS4wMzE4MzM2IDMuMzU4MzgwNyw1LjcxMjA4MSAyLjY3OTUxNzIsNi4zNDA2NTUzIDIuMTM3MTY3OCw3LjE1Njk5OCAxLjYzNTk3MTksNy45MzU0ODQ1IDEuMzA2NDA4Miw4LjU5NTI0ODIgMS4xMjIzODgxLDkuMzEzMzczIDEuMTUyMzQzOCwxMC4wNTQ2ODggYyAtMC4zNDQ0MzkyOSwwLjQzMTA4NCAwLjI2NjcwNTEsMC42NzE4MTYgMC40Nzg1MTU2LDAuOTI5Njg3IDAuMDM4NjgxLDAuNDY0MTU3IC0wLjE2NDczMzUsMC45MTg5NTEgLTAuMTAwMTk2NywxLjM4NzcwNyAtMC4xMDMyMTQyLDAuNDA5OTc3IDAuMDUwMDc4LDAuODMzMjM1IDAuMzIwMjI1MiwxLjExMzk2NSAwLjM1OTU2MjgsMS4zODQ0MTMgMC4yMjk1MTU4LDIuODQ2NjQ2IDAuNzIxMTM3Miw0LjIwNzI5NSAwLjE1ODU5MzIsMC41MjA0NSAwLjM0NDA5NDYsMS4wNjI0NzkgMC42ODk2OTM3LDEuNDg2MzQ2IDAuODUzMjY5NSwwLjYxMDgyIDEuNjkxODk0OSwxLjI4MjExMiAyLjcyMjkxMjYsMS41NzIyNjkgMC43ODIxOTUsMC40MzY4ODMgMS42ODExODI3LDAuNDY4NTQxIDIuNTM4ODA2MSwwLjU4MDA3NCAxLjE1MzMzNywwLjM1Mzc3NSAyLjIwNzMxMTUsMS4wOTQzMTEgMy4zOTg0Mzc1LDEuMjUxOTUzIDAuODE5NDA1LDAuMjkzMzM1IDEuNjk1NDYxLDAuNDUxMTQ4IDIuNTU0Njg3LDAuNTE5NTMyIDAuNjkxODc5LDAuMDA0IDEuMDcwMzA4LC0wLjc4OTQ2NCAxLjc1OTc2NiwtMC43NTM5MDcgMC4zNzEzODMsLTAuMTcxNzY4IDAuNDcyNzc4LC0wLjY4MTMxMiAwLjg3MTA5NCwtMC43OTY4NzUgMC4xMTQ2NDMsLTAuNzc4MzY0IDAuNzE1Njg1LC0xLjI3MjA3OCAxLjE2OTkyMiwtMS44NDk2MDkgMC40MTMyOTQsLTAuMzUxNjA0IDAuODk2NDk4LC0wLjU1ODk1NyAxLjQyMzgyOCwtMC42Nzk2ODcgMC4zMzE5MTYsLTAuMzgzNzA0IDAuNTM5NDU0LC0wLjg5Njg4NCAwLjkwNDc0OCwtMS4yODU3ODYgMC4zOTQ5MDQsLTAuNDU4OTExIDAuNTY3NjA5LC0xLjE0NjUyOSAxLjIzOTc4MywtMS4yNzA4NTUgMC41MDE1ODcsLTAuMjQxODU1IDAuMDk2MDksLTAuODk5MTczIDAuNTI3MzQ0LC0xLjIxODc1IDAuMjExMTA4LC0wLjQ1NDU5IDAuMjc3Mjk4LC0wLjk3NzU5OSAwLjQzNTU0NywtMS40NjA5MzggMC4wMjgzNCwtMC40OTI0MzQgMC4wNDc3NywtMS4wMjM2MjkgLTAuMzQ3NjU2LC0xLjM5ODQzNyBDIDIyLjIxMTUyLDExLjI3NDgzMiAyMS45NzU5NzQsMTAuMTUxNzQyIDIxLjk4MTE0OSw5LjAxNzgzNzcgMjEuODczMDQxLDcuNzk4MjQ3MyAyMS40NTc2NjEsNi42NTA3ODA5IDIxLjA5NDQ2OCw1LjQ5NjMxNzcgMjAuNzc3NjQyLDQuODU4ODQyOSAyMC42ODQ3NjIsMy45NzI2NzIzIDE5Ljg4NTMzOCwzLjczMTI3NTEgMTguOTQwMDAyLDMuNDQ4MzAwOSAxOC4wNzM1MDIsMy4wMDYwMzMyIDE3LjA5OTU2LDIuODM4MDc1OSAxNi4yMjk1MSwyLjYxNDgwNDEgMTUuMzE0NTUsMi41NDgyMjUxIDE0LjQ2MTQ3NSwyLjQyMzQwOTUgMTMuMTIxMjYsMS41OTg3MDA5IDExLjU3NTM4OCwxLjAxNDUzNTIgOS45NzYyMTI3LDEuMTU1MzQ3MSA5Ljg3MDgxMzEsMS4xNDY4Mzc4IDkuNzY1NTA4LDEuMTU4MjI1MiA5LjY2MDE1NjIsMS4xNjAxNTYyIFoiIC8+CiAgPHBhdGggZD0iTTIyLjI4MTkgOS44MjExYTUuOTg0NyA1Ljk4NDcgMCAwIDAtLjUxNTctNC45MTA4IDYuMDQ2MiA2LjA0NjIgMCAwIDAtNi41MDk4LTIuOUE2LjA2NTEgNi4wNjUxIDAgMCAwIDQuOTgwNyA0LjE4MThhNS45ODQ3IDUuOTg0NyAwIDAgMC0zLjk5NzcgMi45IDYuMDQ2MiA2LjA0NjIgMCAwIDAgLjc0MjcgNy4wOTY2IDUuOTggNS45OCAwIDAgMCAuNTExIDQuOTEwNyA2LjA1MSA2LjA1MSAwIDAgMCA2LjUxNDYgMi45MDAxQTUuOTg0NyA1Ljk4NDcgMCAwIDAgMTMuMjU5OSAyNGE2LjA1NTcgNi4wNTU3IDAgMCAwIDUuNzcxOC00LjIwNTggNS45ODk0IDUuOTg5NCAwIDAgMCAzLjk5NzctMi45MDAxIDYuMDU1NyA2LjA1NTcgMCAwIDAtLjc0NzUtNy4wNzI5em0tOS4wMjIgMTIuNjA4MWE0LjQ3NTUgNC40NzU1IDAgMCAxLTIuODc2NC0xLjA0MDhsLjE0MTktLjA4MDQgNC43NzgzLTIuNzU4MmEuNzk0OC43OTQ4IDAgMCAwIC4zOTI3LS42ODEzdi02LjczNjlsMi4wMiAxLjE2ODZhLjA3MS4wNzEgMCAwIDEgLjAzOC4wNTJ2NS41ODI2YTQuNTA0IDQuNTA0IDAgMCAxLTQuNDk0NSA0LjQ5NDR6bS05LjY2MDctNC4xMjU0YTQuNDcwOCA0LjQ3MDggMCAwIDEtLjUzNDYtMy4wMTM3bC4xNDIuMDg1MiA0Ljc4MyAyLjc1ODJhLjc3MTIuNzcxMiAwIDAgMCAuNzgwNiAwbDUuODQyOC0zLjM2ODV2Mi4zMzI0YS4wODA0LjA4MDQgMCAwIDEtLjAzMzIuMDYxNUw5Ljc0IDE5Ljk1MDJhNC40OTkyIDQuNDk5MiAwIDAgMS02LjE0MDgtMS42NDY0ek0yLjM0MDggNy44OTU2YTQuNDg1IDQuNDg1IDAgMCAxIDIuMzY1NS0xLjk3MjhWMTEuNmEuNzY2NC43NjY0IDAgMCAwIC4zODc5LjY3NjVsNS44MTQ0IDMuMzU0My0yLjAyMDEgMS4xNjg1YS4wNzU3LjA3NTcgMCAwIDEtLjA3MSAwbC00LjgzMDMtMi43ODY1QTQuNTA0IDQuNTA0IDAgMCAxIDIuMzQwOCA3Ljg3MnptMTYuNTk2MyAzLjg1NThMMTMuMTAzOCA4LjM2NCAxNS4xMTkyIDcuMmEuMDc1Ny4wNzU3IDAgMCAxIC4wNzEgMGw0LjgzMDMgMi43OTEzYTQuNDk0NCA0LjQ5NDQgMCAwIDEtLjY3NjUgOC4xMDQydi01LjY3NzJhLjc5Ljc5IDAgMCAwLS40MDctLjY2N3ptMi4wMTA3LTMuMDIzMWwtLjE0Mi0uMDg1Mi00Ljc3MzUtMi43ODE4YS43NzU5Ljc3NTkgMCAwIDAtLjc4NTQgMEw5LjQwOSA5LjIyOTdWNi44OTc0YS4wNjYyLjA2NjIgMCAwIDEgLjAyODQtLjA2MTVsNC44MzAzLTIuNzg2NmE0LjQ5OTIgNC40OTkyIDAgMCAxIDYuNjgwMiA0LjY2ek04LjMwNjUgMTIuODYzbC0yLjAyLTEuMTYzOGEuMDgwNC4wODA0IDAgMCAxLS4wMzgtLjA1NjdWNi4wNzQyYTQuNDk5MiA0LjQ5OTIgMCAwIDEgNy4zNzU3LTMuNDUzN2wtLjE0Mi4wODA1TDguNzA0IDUuNDU5YS43OTQ4Ljc5NDggMCAwIDAtLjM5MjcuNjgxM3ptMS4wOTc2LTIuMzY1NGwyLjYwMi0xLjQ5OTggMi42MDY5IDEuNDk5OHYyLjk5OTRsLTIuNTk3NCAxLjQ5OTctMi42MDY3LTEuNDk5N1oiIC8+Cjwvc3ZnPgo=;" vertex="1" parent="ITkjMg-f8AzUp9j5lRt0-24">
          <mxGeometry x="9.600000000000023" width="42" height="42" as="geometry" />
        </mxCell>
        <mxCell id="ITkjMg-f8AzUp9j5lRt0-21" value="Open AI LLM (GPT4)" style="text;html=1;align=center;verticalAlign=middle;whiteSpace=wrap;rounded=0;" vertex="1" parent="ITkjMg-f8AzUp9j5lRt0-24">
          <mxGeometry y="42" width="79.2" height="30" as="geometry" />
        </mxCell>
        <mxCell id="ITkjMg-f8AzUp9j5lRt0-25" value="" style="group" vertex="1" connectable="0" parent="1">
          <mxGeometry x="-322" y="157" width="60" height="74" as="geometry" />
        </mxCell>
        <mxCell id="ITkjMg-f8AzUp9j5lRt0-16" value="" style="shape=image;aspect=fixed;image=data:image/svg+xml,PD94bWwgdmVyc2lvbj0iMS4wIiBlbmNvZGluZz0iVVRGLTgiIHN0YW5kYWxvbmU9Im5vIj8+Cgo8c3ZnIGZpbGw9IiMwMDAwMDAiIHdpZHRoPSI4MDBweCIgaGVpZ2h0PSI4MDBweCIgdmlld0JveD0iMCAwIDI0IDI0IiByb2xlPSJpbWciIHhtbG5zPSJodHRwOi8vd3d3LnczLm9yZy8yMDAwL3N2ZyI+CiAgPHBhdGggc3R5bGU9ImZpbGw6I2ZmZmZmZjtzdHJva2Utd2lkdGg6MC4wMyIgZD0iTSA5LjY2MDE1NjIsMS4xNjAxNTYyIEMgOC45MjA5MDExLDEuMjEyMTA5NiA4LjE3NTk2NDIsMS40MTQ1MzE1IDcuNjk5MjE4OCwyLjAyMzQzNzUgNy4wNTU3MTE0LDIuNjAyNjQyMiA2LjIxNjg5MDksMy4wNDc5ODQ5IDUuOTEwODg3MiwzLjkxNDY5ODUgNS4zNjY0NjMyLDQuODgwMjEyNSA0LjE1NjMxNjUsNS4wMzE4MzM2IDMuMzU4MzgwNyw1LjcxMjA4MSAyLjY3OTUxNzIsNi4zNDA2NTUzIDIuMTM3MTY3OCw3LjE1Njk5OCAxLjYzNTk3MTksNy45MzU0ODQ1IDEuMzA2NDA4Miw4LjU5NTI0ODIgMS4xMjIzODgxLDkuMzEzMzczIDEuMTUyMzQzOCwxMC4wNTQ2ODggYyAtMC4zNDQ0MzkyOSwwLjQzMTA4NCAwLjI2NjcwNTEsMC42NzE4MTYgMC40Nzg1MTU2LDAuOTI5Njg3IDAuMDM4NjgxLDAuNDY0MTU3IC0wLjE2NDczMzUsMC45MTg5NTEgLTAuMTAwMTk2NywxLjM4NzcwNyAtMC4xMDMyMTQyLDAuNDA5OTc3IDAuMDUwMDc4LDAuODMzMjM1IDAuMzIwMjI1MiwxLjExMzk2NSAwLjM1OTU2MjgsMS4zODQ0MTMgMC4yMjk1MTU4LDIuODQ2NjQ2IDAuNzIxMTM3Miw0LjIwNzI5NSAwLjE1ODU5MzIsMC41MjA0NSAwLjM0NDA5NDYsMS4wNjI0NzkgMC42ODk2OTM3LDEuNDg2MzQ2IDAuODUzMjY5NSwwLjYxMDgyIDEuNjkxODk0OSwxLjI4MjExMiAyLjcyMjkxMjYsMS41NzIyNjkgMC43ODIxOTUsMC40MzY4ODMgMS42ODExODI3LDAuNDY4NTQxIDIuNTM4ODA2MSwwLjU4MDA3NCAxLjE1MzMzNywwLjM1Mzc3NSAyLjIwNzMxMTUsMS4wOTQzMTEgMy4zOTg0Mzc1LDEuMjUxOTUzIDAuODE5NDA1LDAuMjkzMzM1IDEuNjk1NDYxLDAuNDUxMTQ4IDIuNTU0Njg3LDAuNTE5NTMyIDAuNjkxODc5LDAuMDA0IDEuMDcwMzA4LC0wLjc4OTQ2NCAxLjc1OTc2NiwtMC43NTM5MDcgMC4zNzEzODMsLTAuMTcxNzY4IDAuNDcyNzc4LC0wLjY4MTMxMiAwLjg3MTA5NCwtMC43OTY4NzUgMC4xMTQ2NDMsLTAuNzc4MzY0IDAuNzE1Njg1LC0xLjI3MjA3OCAxLjE2OTkyMiwtMS44NDk2MDkgMC40MTMyOTQsLTAuMzUxNjA0IDAuODk2NDk4LC0wLjU1ODk1NyAxLjQyMzgyOCwtMC42Nzk2ODcgMC4zMzE5MTYsLTAuMzgzNzA0IDAuNTM5NDU0LC0wLjg5Njg4NCAwLjkwNDc0OCwtMS4yODU3ODYgMC4zOTQ5MDQsLTAuNDU4OTExIDAuNTY3NjA5LC0xLjE0NjUyOSAxLjIzOTc4MywtMS4yNzA4NTUgMC41MDE1ODcsLTAuMjQxODU1IDAuMDk2MDksLTAuODk5MTczIDAuNTI3MzQ0LC0xLjIxODc1IDAuMjExMTA4LC0wLjQ1NDU5IDAuMjc3Mjk4LC0wLjk3NzU5OSAwLjQzNTU0NywtMS40NjA5MzggMC4wMjgzNCwtMC40OTI0MzQgMC4wNDc3NywtMS4wMjM2MjkgLTAuMzQ3NjU2LC0xLjM5ODQzNyBDIDIyLjIxMTUyLDExLjI3NDgzMiAyMS45NzU5NzQsMTAuMTUxNzQyIDIxLjk4MTE0OSw5LjAxNzgzNzcgMjEuODczMDQxLDcuNzk4MjQ3MyAyMS40NTc2NjEsNi42NTA3ODA5IDIxLjA5NDQ2OCw1LjQ5NjMxNzcgMjAuNzc3NjQyLDQuODU4ODQyOSAyMC42ODQ3NjIsMy45NzI2NzIzIDE5Ljg4NTMzOCwzLjczMTI3NTEgMTguOTQwMDAyLDMuNDQ4MzAwOSAxOC4wNzM1MDIsMy4wMDYwMzMyIDE3LjA5OTU2LDIuODM4MDc1OSAxNi4yMjk1MSwyLjYxNDgwNDEgMTUuMzE0NTUsMi41NDgyMjUxIDE0LjQ2MTQ3NSwyLjQyMzQwOTUgMTMuMTIxMjYsMS41OTg3MDA5IDExLjU3NTM4OCwxLjAxNDUzNTIgOS45NzYyMTI3LDEuMTU1MzQ3MSA5Ljg3MDgxMzEsMS4xNDY4Mzc4IDkuNzY1NTA4LDEuMTU4MjI1MiA5LjY2MDE1NjIsMS4xNjAxNTYyIFoiIC8+CiAgPHBhdGggZD0iTTIyLjI4MTkgOS44MjExYTUuOTg0NyA1Ljk4NDcgMCAwIDAtLjUxNTctNC45MTA4IDYuMDQ2MiA2LjA0NjIgMCAwIDAtNi41MDk4LTIuOUE2LjA2NTEgNi4wNjUxIDAgMCAwIDQuOTgwNyA0LjE4MThhNS45ODQ3IDUuOTg0NyAwIDAgMC0zLjk5NzcgMi45IDYuMDQ2MiA2LjA0NjIgMCAwIDAgLjc0MjcgNy4wOTY2IDUuOTggNS45OCAwIDAgMCAuNTExIDQuOTEwNyA2LjA1MSA2LjA1MSAwIDAgMCA2LjUxNDYgMi45MDAxQTUuOTg0NyA1Ljk4NDcgMCAwIDAgMTMuMjU5OSAyNGE2LjA1NTcgNi4wNTU3IDAgMCAwIDUuNzcxOC00LjIwNTggNS45ODk0IDUuOTg5NCAwIDAgMCAzLjk5NzctMi45MDAxIDYuMDU1NyA2LjA1NTcgMCAwIDAtLjc0NzUtNy4wNzI5em0tOS4wMjIgMTIuNjA4MWE0LjQ3NTUgNC40NzU1IDAgMCAxLTIuODc2NC0xLjA0MDhsLjE0MTktLjA4MDQgNC43NzgzLTIuNzU4MmEuNzk0OC43OTQ4IDAgMCAwIC4zOTI3LS42ODEzdi02LjczNjlsMi4wMiAxLjE2ODZhLjA3MS4wNzEgMCAwIDEgLjAzOC4wNTJ2NS41ODI2YTQuNTA0IDQuNTA0IDAgMCAxLTQuNDk0NSA0LjQ5NDR6bS05LjY2MDctNC4xMjU0YTQuNDcwOCA0LjQ3MDggMCAwIDEtLjUzNDYtMy4wMTM3bC4xNDIuMDg1MiA0Ljc4MyAyLjc1ODJhLjc3MTIuNzcxMiAwIDAgMCAuNzgwNiAwbDUuODQyOC0zLjM2ODV2Mi4zMzI0YS4wODA0LjA4MDQgMCAwIDEtLjAzMzIuMDYxNUw5Ljc0IDE5Ljk1MDJhNC40OTkyIDQuNDk5MiAwIDAgMS02LjE0MDgtMS42NDY0ek0yLjM0MDggNy44OTU2YTQuNDg1IDQuNDg1IDAgMCAxIDIuMzY1NS0xLjk3MjhWMTEuNmEuNzY2NC43NjY0IDAgMCAwIC4zODc5LjY3NjVsNS44MTQ0IDMuMzU0My0yLjAyMDEgMS4xNjg1YS4wNzU3LjA3NTcgMCAwIDEtLjA3MSAwbC00LjgzMDMtMi43ODY1QTQuNTA0IDQuNTA0IDAgMCAxIDIuMzQwOCA3Ljg3MnptMTYuNTk2MyAzLjg1NThMMTMuMTAzOCA4LjM2NCAxNS4xMTkyIDcuMmEuMDc1Ny4wNzU3IDAgMCAxIC4wNzEgMGw0LjgzMDMgMi43OTEzYTQuNDk0NCA0LjQ5NDQgMCAwIDEtLjY3NjUgOC4xMDQydi01LjY3NzJhLjc5Ljc5IDAgMCAwLS40MDctLjY2N3ptMi4wMTA3LTMuMDIzMWwtLjE0Mi0uMDg1Mi00Ljc3MzUtMi43ODE4YS43NzU5Ljc3NTkgMCAwIDAtLjc4NTQgMEw5LjQwOSA5LjIyOTdWNi44OTc0YS4wNjYyLjA2NjIgMCAwIDEgLjAyODQtLjA2MTVsNC44MzAzLTIuNzg2NmE0LjQ5OTIgNC40OTkyIDAgMCAxIDYuNjgwMiA0LjY2ek04LjMwNjUgMTIuODYzbC0yLjAyLTEuMTYzOGEuMDgwNC4wODA0IDAgMCAxLS4wMzgtLjA1NjdWNi4wNzQyYTQuNDk5MiA0LjQ5OTIgMCAwIDEgNy4zNzU3LTMuNDUzN2wtLjE0Mi4wODA1TDguNzA0IDUuNDU5YS43OTQ4Ljc5NDggMCAwIDAtLjM5MjcuNjgxM3ptMS4wOTc2LTIuMzY1NGwyLjYwMi0xLjQ5OTggMi42MDY5IDEuNDk5OHYyLjk5OTRsLTIuNTk3NCAxLjQ5OTctMi42MDY3LTEuNDk5N1oiIC8+Cjwvc3ZnPgo=;" vertex="1" parent="ITkjMg-f8AzUp9j5lRt0-25">
          <mxGeometry x="7" width="42" height="42" as="geometry" />
        </mxCell>
        <mxCell id="ITkjMg-f8AzUp9j5lRt0-17" value="OpenAI Embedding" style="text;html=1;align=center;verticalAlign=middle;whiteSpace=wrap;rounded=0;" vertex="1" parent="ITkjMg-f8AzUp9j5lRt0-25">
          <mxGeometry y="44" width="60" height="30" as="geometry" />
        </mxCell>
        <mxCell id="ITkjMg-f8AzUp9j5lRt0-31" value="User Interaction" style="text;html=1;align=center;verticalAlign=middle;whiteSpace=wrap;rounded=0;" vertex="1" parent="1">
          <mxGeometry x="-177" y="433" width="93" height="30" as="geometry" />
        </mxCell>
        <mxCell id="ITkjMg-f8AzUp9j5lRt0-32" value="&lt;font style=&quot;font-size: 10px;&quot;&gt;1. Read downloaded files&amp;nbsp;&lt;/font&gt;&lt;div&gt;&lt;span style=&quot;font-size: 10px;&quot;&gt;2. Chunk them&lt;br&gt;&lt;/span&gt;&lt;div&gt;&lt;font style=&quot;font-size: 10px;&quot;&gt;3. Create embedding&lt;/font&gt;&lt;/div&gt;&lt;div&gt;&lt;font style=&quot;font-size: 10px;&quot;&gt;4. Write to ChromaDB&lt;/font&gt;&lt;/div&gt;&lt;/div&gt;" style="text;html=1;align=left;verticalAlign=middle;whiteSpace=wrap;rounded=0;fillColor=#fff2cc;strokeColor=none;" vertex="1" parent="1">
          <mxGeometry x="-136" y="293" width="145" height="53" as="geometry" />
        </mxCell>
        <mxCell id="ITkjMg-f8AzUp9j5lRt0-33" value="&lt;font style=&quot;font-size: 10px;&quot;&gt;1. find chunks from chroma&lt;/font&gt;&lt;div&gt;&lt;font style=&quot;font-size: 10px;&quot;&gt;2. prepare prompt&lt;/font&gt;&lt;/div&gt;&lt;div&gt;&lt;font style=&quot;font-size: 10px;&quot;&gt;3. Send to LLM&amp;nbsp;&lt;/font&gt;&lt;/div&gt;&lt;div&gt;&lt;font style=&quot;font-size: 10px;&quot;&gt;4. Respond&lt;/font&gt;&lt;/div&gt;" style="text;html=1;align=left;verticalAlign=middle;whiteSpace=wrap;rounded=0;fillColor=#fff2cc;strokeColor=none;" vertex="1" parent="1">
          <mxGeometry x="-6" y="495" width="145" height="53" as="geometry" />
        </mxCell>
      </root>
    </mxGraphModel>
  </diagram>
</mxfile>
